<svg xmlns="http://www.w3.org/2000/svg" xmlns:xlink="http://www.w3.org/1999/xlink" width="20" height="26.606" viewBox="0 0 20 26.606">
  <defs>
    <clipPath id="clip-path">
      <rect id="Rectangle_35" data-name="Rectangle 35" width="20" height="26.606" fill="none"/>
    </clipPath>
  </defs>
  <g id="Group_58" data-name="Group 58" transform="translate(-0.5)">
    <g id="Group_19" data-name="Group 19" transform="translate(0.5)" clip-path="url(#clip-path)">
      <path id="Path_16" data-name="Path 16" d="M12,18.254a27.859,27.859,0,0,0,3.356-5.184,12.221,12.221,0,0,0,1.2-3.707A7.943,7.943,0,0,0,15.4,3.994,8.134,8.134,0,0,0,9.585.106,8.327,8.327,0,0,0,.541,11.293a21.118,21.118,0,0,0,2.733,5.138,40.373,40.373,0,0,0,4.692,5.545l0,0a.488.488,0,0,0,.682,0A39.307,39.307,0,0,0,12,18.254M8.308,12.132a3.811,3.811,0,1,1,3.816-3.811,3.818,3.818,0,0,1-3.816,3.811" transform="translate(1.686 2.244)" fill="#fff"/>
    </g>
  </g>
</svg>
