<svg id="Layer_1" data-name="Layer 1" xmlns="http://www.w3.org/2000/svg" width="110" height="110.888" viewBox="0 0 110 110.888">
  <path id="Path_1" data-name="Path 1" d="M55,0a55.452,55.452,0,0,1,55,48.4H83.35a29.212,29.212,0,0,0-56.7,0H0A55.452,55.452,0,0,1,55,0Zm53.182,71.152a55.457,55.457,0,0,1-106.365,0H30.375a29.217,29.217,0,0,0,49.251,0h28.557Z" fill="#e3000f" fill-rule="evenodd"/>
  <path id="Path_2" data-name="Path 2" d="M38.413,136.059l1.368,1.273a1.618,1.618,0,0,0,1.03.557,1.463,1.463,0,0,0,.953-.586l.326-.349a1.514,1.514,0,0,0,.521-1.007,1.622,1.622,0,0,0-.628-.989l-1.368-1.273-2.2,2.374ZM31.58,138.5l8.479-9.124,3.683,3.416a7.313,7.313,0,0,1,2.374,3.239,3.032,3.032,0,0,1-1.024,2.676l-.681.734a2.962,2.962,0,0,1-1.794,1.036,2.723,2.723,0,0,1-1.912-.592,3.1,3.1,0,0,1,.776,1.865,2.54,2.54,0,0,1-.793,1.705l-1.747,1.883-2.5-2.321,1.528-1.64a1.538,1.538,0,0,0,.521-1.007,1.622,1.622,0,0,0-.628-.989l-1.356-1.261-2.469,2.659-2.445-2.274h0Zm19.35,5.8-.693,1.93a3.462,3.462,0,0,0-.337,2.013c.13.337.562.639,1.279.894l.58.207a2.026,2.026,0,0,0,1.569.118,3.452,3.452,0,0,0,1.024-1.759l.693-1.93a3.5,3.5,0,0,0,.332-2.019c-.136-.349-.562-.651-1.279-.912l-.58-.207a1.989,1.989,0,0,0-1.557-.113,3.517,3.517,0,0,0-1.024,1.776h0Zm-3.114-1.415-.876,2.434c-.639,1.776-.752,3.144-.337,4.091a4.942,4.942,0,0,0,3.1,2.309l1.539.557q2.5.9,3.878.2c.924-.468,1.705-1.593,2.339-3.363l.876-2.434c.639-1.776.752-3.132.337-4.085s-1.451-1.723-3.114-2.321l-1.539-.557c-1.658-.6-2.943-.663-3.866-.2s-1.7,1.593-2.339,3.369h0Zm15.916,12.369L63.541,142.8l5.844-.089a5.2,5.2,0,0,1,3.541.912,4.138,4.138,0,0,1,1.113,3.168l.012.817a4.126,4.126,0,0,1-1.018,3.209,5.165,5.165,0,0,1-3.505,1.024l-2.5.036.053,3.322-3.339.053h0Zm3.245-6.152,2.327-.036a1.474,1.474,0,0,0,1.084-.308,1.8,1.8,0,0,0,.249-1.184l-.012-.722a1.391,1.391,0,0,0-.355-1.054,1.68,1.68,0,0,0-1.155-.3l-2.191.036.053,3.564Zm14.773,4.074L77.42,141.5,86.2,138.25l.965,2.605-5.643,2.09.752,2.025,5.477-2.031.835,2.25L83.1,147.22l.817,2.2,5.767-2.138.965,2.605-8.9,3.3h0ZM94.26,142.513l.586.628a2.845,2.845,0,0,0,2.357,1.084,5.3,5.3,0,0,0,2.836-1.6l2-1.853a3.556,3.556,0,0,0,1.261-2.445,3.3,3.3,0,0,0-.977-2.469l-.811-.876a2.776,2.776,0,0,0-2.007-1.007,4.085,4.085,0,0,0-2.38.941l-2,1.474h0c-.728.539-1.243.639-1.557.3l-.355-.379a.71.71,0,0,1-.225-.675,2.176,2.176,0,0,1,.675-.882l.563-.527a1.546,1.546,0,0,1,.847-.485.979.979,0,0,1,.722.391l.089.1,2.345-2.179-.58-.628a2.557,2.557,0,0,0-2.209-.924,4.592,4.592,0,0,0-2.605,1.391l-1.468,1.362a8.945,8.945,0,0,0-1.3,1.421,2.626,2.626,0,0,0-.438,1.137,2.792,2.792,0,0,0,.172,1.362,4.2,4.2,0,0,0,.853,1.326l.527.563a2.854,2.854,0,0,0,4.358.414l2.185-1.628a2.428,2.428,0,0,1,1-.527.751.751,0,0,1,.61.3l.367.4a.8.8,0,0,1,.266.74,2.006,2.006,0,0,1-.639.876l-.616.568a2.234,2.234,0,0,1-1.113.669,1.091,1.091,0,0,1-.906-.444l-.083-.095-2.345,2.179Z" transform="translate(-12.882 -52.774)" fill="#fff" fill-rule="evenodd"/>
  <path id="Path_3" data-name="Path 3" d="M.91,98.26l1.693-.2a2.539,2.539,0,0,0,.616,1.445,1.7,1.7,0,0,0,1.255.462,1.731,1.731,0,0,0,1.255-.409,1.287,1.287,0,0,0,.426-.959,1.012,1.012,0,0,0-.178-.6,1.365,1.365,0,0,0-.622-.426c-.2-.083-.663-.225-1.38-.438a4.39,4.39,0,0,1-1.948-.989,2.793,2.793,0,0,1-.787-2.007,2.927,2.927,0,0,1,.367-1.427A2.463,2.463,0,0,1,2.68,91.7a3.761,3.761,0,0,1,1.687-.349,3.276,3.276,0,0,1,2.428.829,3.165,3.165,0,0,1,.859,2.214l-1.741.071a1.8,1.8,0,0,0-.474-1.107A1.549,1.549,0,0,0,4.35,93.02a1.757,1.757,0,0,0-1.172.361A.767.767,0,0,0,2.905,94a.811.811,0,0,0,.261.6,4.158,4.158,0,0,0,1.587.669,7.519,7.519,0,0,1,1.865.716A2.6,2.6,0,0,1,7.565,97,3.577,3.577,0,0,1,7.5,100.2,2.53,2.53,0,0,1,6.34,101.3a4.268,4.268,0,0,1-1.871.361,3.385,3.385,0,0,1-2.5-.87A4.046,4.046,0,0,1,.928,98.26h0Zm7.65-3.991h1.753L11.8,99.385l1.457-5.116h1.705l-2.2,6.939-.4,1.255a5.633,5.633,0,0,1-.414.959,2.055,2.055,0,0,1-.45.539,1.9,1.9,0,0,1-.628.32,2.838,2.838,0,0,1-.847.118,3.821,3.821,0,0,1-.936-.118L8.957,102.8a3.175,3.175,0,0,0,.7.089.972.972,0,0,0,.853-.391,3,3,0,0,0,.426-1L8.566,94.269h0Zm7.342,0h1.51v.983a2.348,2.348,0,0,1,1.936-1.137,1.862,1.862,0,0,1,1.036.284,2.1,2.1,0,0,1,.722.859,2.954,2.954,0,0,1,.888-.859,1.925,1.925,0,0,1,1.012-.284,2.04,2.04,0,0,1,1.161.32,1.959,1.959,0,0,1,.711.947,4.72,4.72,0,0,1,.172,1.492v4.607H23.4V97.366a3.4,3.4,0,0,0-.172-1.386.753.753,0,0,0-.7-.409,1.035,1.035,0,0,0-.651.243,1.385,1.385,0,0,0-.438.716,5.948,5.948,0,0,0-.136,1.486v3.458H19.656V97.531a6.243,6.243,0,0,0-.089-1.356.89.89,0,0,0-.272-.456.766.766,0,0,0-.5-.148,1.06,1.06,0,0,0-.681.237,1.32,1.32,0,0,0-.438.687,5.822,5.822,0,0,0-.13,1.486v3.5H15.9V94.269h0Zm10.711,7.212V91.534h1.646v3.588a2.226,2.226,0,0,1,1.806-1.007,2.283,2.283,0,0,1,1.877.953,4.38,4.38,0,0,1,.746,2.741,4.743,4.743,0,0,1-.758,2.848,2.255,2.255,0,0,1-1.841,1,2,2,0,0,1-1.054-.32,2.789,2.789,0,0,1-.894-.924v1.06H26.619Zm1.616-3.742a3.417,3.417,0,0,0,.308,1.658,1.278,1.278,0,0,0,1.137.764,1.123,1.123,0,0,0,.93-.545,3,3,0,0,0,.385-1.705,3.149,3.149,0,0,0-.391-1.788,1.168,1.168,0,0,0-1.972-.018,2.759,2.759,0,0,0-.4,1.628h0Zm5.394.053a4.45,4.45,0,0,1,.4-1.841,3.1,3.1,0,0,1,1.143-1.362,3,3,0,0,1,1.652-.468,2.9,2.9,0,0,1,2.315,1.066,4,4,0,0,1,.9,2.688,4.066,4.066,0,0,1-.912,2.718,2.888,2.888,0,0,1-2.291,1.078,3.173,3.173,0,0,1-1.628-.45,2.84,2.84,0,0,1-1.178-1.314,4.9,4.9,0,0,1-.4-2.108h0Zm1.693.1a2.672,2.672,0,0,0,.438,1.646,1.316,1.316,0,0,0,1.084.574,1.3,1.3,0,0,0,1.078-.574,2.7,2.7,0,0,0,.438-1.658,2.6,2.6,0,0,0-.438-1.628,1.305,1.305,0,0,0-1.078-.574,1.323,1.323,0,0,0-1.084.574,2.672,2.672,0,0,0-.438,1.646h0Zm6.022,3.594V91.539h1.646v9.947Zm6.282-3.695a4.45,4.45,0,0,1,.4-1.841,3.1,3.1,0,0,1,1.143-1.362,3,3,0,0,1,1.652-.468,2.9,2.9,0,0,1,2.315,1.066,4,4,0,0,1,.9,2.688,4.066,4.066,0,0,1-.912,2.718,2.889,2.889,0,0,1-2.291,1.078,3.21,3.21,0,0,1-1.634-.45,2.84,2.84,0,0,1-1.178-1.314,4.9,4.9,0,0,1-.4-2.108h0Zm1.693.1a2.672,2.672,0,0,0,.438,1.646,1.316,1.316,0,0,0,1.084.574,1.3,1.3,0,0,0,1.078-.574,2.7,2.7,0,0,0,.438-1.658,2.6,2.6,0,0,0-.438-1.628,1.305,1.305,0,0,0-1.078-.574,1.323,1.323,0,0,0-1.084.574,2.672,2.672,0,0,0-.438,1.646h0Zm5.3-3.618h.912V93.73a4.16,4.16,0,0,1,.166-1.362,1.476,1.476,0,0,1,.616-.734,2.11,2.11,0,0,1,1.143-.284,4.19,4.19,0,0,1,1.386.243l-.207,1.326a3.017,3.017,0,0,0-.776-.107.618.618,0,0,0-.521.2,1.294,1.294,0,0,0-.16.752v.515h1.237v1.5H57.171v5.714H55.525V95.773h-.912v-1.5h0Zm7.6,3.991,1.693-.2a2.54,2.54,0,0,0,.616,1.445,1.7,1.7,0,0,0,1.255.462,1.731,1.731,0,0,0,1.255-.409,1.287,1.287,0,0,0,.426-.959,1.012,1.012,0,0,0-.178-.6,1.365,1.365,0,0,0-.622-.426c-.2-.083-.663-.225-1.38-.438a4.39,4.39,0,0,1-1.948-.989,2.793,2.793,0,0,1-.787-2.007,2.926,2.926,0,0,1,.367-1.427,2.463,2.463,0,0,1,1.072-1.012,3.76,3.76,0,0,1,1.687-.349,3.277,3.277,0,0,1,2.428.829A3.165,3.165,0,0,1,68.96,94.4l-1.741.071a1.8,1.8,0,0,0-.474-1.107,1.549,1.549,0,0,0-1.089-.337,1.757,1.757,0,0,0-1.172.361.767.767,0,0,0-.272.622.811.811,0,0,0,.261.6,4.158,4.158,0,0,0,1.587.669A7.519,7.519,0,0,1,67.924,96a2.6,2.6,0,0,1,.947,1.012,3.381,3.381,0,0,1,.343,1.587,3.3,3.3,0,0,1-.409,1.6,2.53,2.53,0,0,1-1.161,1.107,4.267,4.267,0,0,1-1.871.361,3.385,3.385,0,0,1-2.5-.87,4.045,4.045,0,0,1-1.042-2.534h0ZM73.5,94.275v1.516H72.376V98.71a9.856,9.856,0,0,0,.03,1.036.454.454,0,0,0,.148.243.407.407,0,0,0,.278.095A1.846,1.846,0,0,0,73.5,99.9l.136,1.48a2.861,2.861,0,0,1-1.3.284,1.841,1.841,0,0,1-.8-.172,1.2,1.2,0,0,1-.521-.45,1.913,1.913,0,0,1-.231-.746,10.667,10.667,0,0,1-.053-1.35V95.791h-.758V94.275h.758V92.842l1.646-1.125v2.558H73.5Zm2.724,7.212H74.579V94.275H76.1V95.3a2.872,2.872,0,0,1,.711-.953,1.212,1.212,0,0,1,.716-.225,1.857,1.857,0,0,1,1.084.361L78.1,96.146a1.327,1.327,0,0,0-.776-.314.809.809,0,0,0-.586.219,1.618,1.618,0,0,0-.379.8,12.863,12.863,0,0,0-.136,2.416v2.22h0Zm6.7-2.28,1.646.32a3.141,3.141,0,0,1-.995,1.593,2.662,2.662,0,0,1-1.705.545,2.626,2.626,0,0,1-2.4-1.232,4.635,4.635,0,0,1-.616-2.487,4.422,4.422,0,0,1,.805-2.807A2.5,2.5,0,0,1,81.7,94.121a2.6,2.6,0,0,1,2.191,1.066,5.269,5.269,0,0,1,.764,3.257H80.541a2.124,2.124,0,0,0,.4,1.32,1.172,1.172,0,0,0,.941.474.909.909,0,0,0,.645-.243,1.537,1.537,0,0,0,.4-.787h0Zm.095-1.93a2.049,2.049,0,0,0-.367-1.261,1.057,1.057,0,0,0-.853-.432,1.089,1.089,0,0,0-.888.456,1.957,1.957,0,0,0-.343,1.237Zm8.639,4.21H90.009V97.81A6.518,6.518,0,0,0,89.9,96.3a1.059,1.059,0,0,0-.343-.533.872.872,0,0,0-.574-.189,1.2,1.2,0,0,0-.776.272,1.35,1.35,0,0,0-.468.716,6.838,6.838,0,0,0-.13,1.658v3.262H85.965V94.275h1.522v1.06a2.414,2.414,0,0,1,2.061-1.214,2.256,2.256,0,0,1,1,.225,1.722,1.722,0,0,1,.687.58,2.276,2.276,0,0,1,.326.8A6.861,6.861,0,0,1,91.655,97v4.476h0Zm1.51.456,1.883.266a.86.86,0,0,0,.213.533,1.116,1.116,0,0,0,.74.207,1.7,1.7,0,0,0,.965-.225.913.913,0,0,0,.326-.48,3.492,3.492,0,0,0,.077-.876v-1.054a2.152,2.152,0,0,1-1.865,1.178,2.239,2.239,0,0,1-1.989-1.226,4.648,4.648,0,0,1-.574-2.416,4.408,4.408,0,0,1,.752-2.765,2.3,2.3,0,0,1,1.877-.959A2.239,2.239,0,0,1,97.475,95.3V94.281h1.534v6.466a7.237,7.237,0,0,1-.184,1.907,2.4,2.4,0,0,1-.509.989,2.22,2.22,0,0,1-.876.562,4.031,4.031,0,0,1-1.386.2,3.238,3.238,0,0,1-2.244-.628,2.1,2.1,0,0,1-.663-1.6c0-.065,0-.142.006-.231h0Zm1.474-4.21a2.9,2.9,0,0,0,.385,1.676,1.138,1.138,0,0,0,.947.533A1.248,1.248,0,0,0,96.99,99.4,2.624,2.624,0,0,0,97.4,97.78a2.856,2.856,0,0,0-.4-1.658A1.2,1.2,0,0,0,96,95.578a1.133,1.133,0,0,0-.971.533,2.789,2.789,0,0,0-.385,1.622h0Zm8.852-3.458v1.516h-1.125V98.71a9.851,9.851,0,0,0,.03,1.036.454.454,0,0,0,.148.243.407.407,0,0,0,.278.095,1.846,1.846,0,0,0,.663-.184l.136,1.48a2.861,2.861,0,0,1-1.3.284,1.841,1.841,0,0,1-.8-.172,1.2,1.2,0,0,1-.521-.45,1.912,1.912,0,0,1-.231-.746,10.664,10.664,0,0,1-.053-1.35V95.791h-.758V94.275h.758V92.842l1.646-1.125v2.558h1.125Zm2.771-2.735v3.689a2.326,2.326,0,0,1,1.912-1.1,2.186,2.186,0,0,1,1.03.243A1.792,1.792,0,0,1,109.9,95a2.529,2.529,0,0,1,.32.841,8.346,8.346,0,0,1,.089,1.433v4.222H108.66v-3.8a6.357,6.357,0,0,0-.095-1.439.955.955,0,0,0-.338-.486.99.99,0,0,0-.6-.184,1.248,1.248,0,0,0-.74.231,1.3,1.3,0,0,0-.474.693,4.674,4.674,0,0,0-.154,1.374v3.606H104.61V91.539h1.646Z" transform="translate(-0.371 -37.262)" fill="#15141a" fill-rule="evenodd"/>
  <path id="Path_4" data-name="Path 4" d="M106.41,38.253l.87,2.368L92.507,46.034l-.87-2.374a2.142,2.142,0,0,1,1.273-2.747l10.753-3.937a2.14,2.14,0,0,1,2.747,1.273h0ZM97.22,23.759a2.121,2.121,0,0,0-2.949-.515l-1.314.924,2.623,3.724L85.757,34.8l2.7,3.837,9.823-6.91,2.635,3.748,1.314-.924a2.122,2.122,0,0,0,.515-2.949l-5.518-7.845h0Zm-18.6-.077a2.512,2.512,0,0,0,1.184,1.7,2.372,2.372,0,0,0,1.984.3,3.1,3.1,0,0,0,1.747-1.433l3.724-5.939a2.216,2.216,0,0,1,3.055-.7l2.078,1.3-4.9,7.816a7.145,7.145,0,0,1-2.664,2.582,5.99,5.99,0,0,1-3.4.675,8.288,8.288,0,0,1-3.683-1.314,8.426,8.426,0,0,1-2.824-2.765A6.152,6.152,0,0,1,74,22.527a6.961,6.961,0,0,1,1.143-3.535l4.9-7.816,2.084,1.309a2.209,2.209,0,0,1,.7,3.049l-3.724,5.939a2.972,2.972,0,0,0-.486,2.214h0Zm-13.595-1-1.243-3.15-2.463-.2-.343,4.228L58.42,23.35a2.108,2.108,0,0,1-1.93-2.268L57.42,9.6a2.108,2.108,0,0,1,2.268-1.93l5.216.42a7.452,7.452,0,0,1,4.772,1.847,5.1,5.1,0,0,1,1.4,4.257,6.256,6.256,0,0,1-.924,2.931,5.046,5.046,0,0,1-2.12,1.841L70.8,24.345l-3.943-.32a2.162,2.162,0,0,1-1.835-1.356h0Zm-3.416-6.928,2.664.213a2.228,2.228,0,0,0,1.664-.426,2.158,2.158,0,0,0,.7-1.563,2.1,2.1,0,0,0-.444-1.622,2.259,2.259,0,0,0-1.575-.681l-2.664-.213-.349,4.293h0Zm-18.379-3.41a2.215,2.215,0,0,0-2.439-.361l-1.676.793a2.21,2.21,0,0,0-1.267,2.09l.622,15.625,4.34-2.061L42.3,22.113l-.462-5.471,3.908,3.837,4.488,4.429,4.5-2.137-11.5-10.439h0ZM15.108,37.353l.752-1.3a2.184,2.184,0,0,1,2.049-1.089l8.307.6-4.7-6.862a2.178,2.178,0,0,1-.089-2.321l.752-1.3a2.129,2.129,0,0,1,2.907-.782L36.88,31.089l-2.049,3.559-8.088-4.66,4.956,7-1.51,2.623-8.544-.776,8.088,4.66-2.049,3.559L15.9,40.261a2.129,2.129,0,0,1-.782-2.907Z" transform="translate(-6.049 -3.124)" fill="#fff" fill-rule="evenodd"/>
</svg>
